<svg version="1.2" xmlns="http://www.w3.org/2000/svg" viewBox="0 0 66 66" width="66" height="66">
	<title>logo-svg</title>
	<style>
		.s0 { fill: #ff5c00 } 
	</style>
	<g id="Layer">
		<g id="Layer">
			<g id="Layer">
				<g id="Layer">
					<path id="Layer" class="s0" d="m31.7 39.6c-3.3 1.3-6.8 10.1-7 26.3l8.6-12v-14.6q-0.2 0-0.4 0-0.2 0.1-0.4 0.1-0.2 0-0.4 0.1-0.2 0.1-0.4 0.1z"/>
					<path id="Layer" class="s0" d="m61.8 10.9c-4.2 13.3-17.7 15.5-17.8 15.5h-0.2-7.5v-2.2-12.4h7.3q1.4-0.1 2.7 0.4 1.3 0.5 2.4 1.5 1 0.9 1.6 2.2 0.6 1.2 0.6 2.6 0 0.1 0 0.1 0 0 0 0 0 0.1 0 0.1 0 0 0 0 0 0.5-0.1 0.9-0.1 0.4-0.2 0.8-0.1 0.4-0.3 0.8-0.2 0.4-0.4 0.8 2-1.1 3.7-2.5 1.7-1.5 3-3.2 1.4-1.8 2.3-3.9 0.9-2 1.4-4.2-1.5-1.9-3.4-3.5-1.8-1.5-4-2.6-2.2-1.1-4.5-1.6-2.4-0.5-4.8-0.5h-43.2l23.2 10.1v42.2c1.5-9.1 4.5-13.6 7.3-14.7q0.3-0.1 0.6-0.2 0.3-0.1 0.6-0.2 0.3 0 0.6-0.1 0.3 0 0.6-0.1v0.1h10.3q1.9 0 3.7-0.3 1.9-0.4 3.7-1 1.7-0.7 3.4-1.6 1.6-1 3-2.2 1.4-1.2 2.6-2.7 1.1-1.6 1.9-3.3 0.9-1.7 1.3-3.5 0.4-1.9 0.4-3.8 0-0.1 0-0.2 0-1-0.1-1.9-0.1-1-0.3-2-0.2-1-0.6-1.9-0.3-0.9-0.8-1.8z"/>
				</g>
				<path id="Layer" class="s0" d=""/>
				<path id="Layer" class="s0" d="m23.6 10.1l-9.4-10.1h-13.8z"/>
				<path id="Layer" class="s0" d="m32.6 39.4l-7.9 24.4q0 1 0 2.1l8.6-12v-14.6q-0.4 0-0.7 0.1z"/>
			</g>
		</g>
	</g>
</svg>